<svg width="48" height="48" viewBox="0 0 48 48" fill="none" xmlns="http://www.w3.org/2000/svg">
<circle cx="24" cy="24" r="24" fill="#790B0A"/>
<g clip-path="url(#clip0_5_161)">
<rect width="28.8" height="28.8" transform="matrix(-1 0 0 1 38.3999 9.59961)" fill="#790B0A"/>
<path d="M12.9749 13.4246H35.0249C36.8859 13.4246 38.3999 14.9386 38.3999 16.7996V31.1996C38.3999 33.0605 36.8859 34.5746 35.0249 34.5746H12.9749C11.1139 34.5746 9.5999 33.0605 9.5999 31.1996V16.7996C9.5999 14.9386 11.1139 13.4246 12.9749 13.4246ZM11.8499 31.1996C11.8499 31.8199 12.3546 32.3246 12.9749 32.3246H35.0249C35.6452 32.3246 36.1499 31.8199 36.1499 31.1996V16.7996C36.1499 16.1792 35.6452 15.6746 35.0249 15.6746H12.9749C12.3546 15.6746 11.8499 16.1792 11.8499 16.7996V31.1996Z" fill="white"/>
<path d="M12.0409 14.8274L23.9999 23.7226L35.9588 14.8274L37.3018 16.6327L23.9999 26.5268L10.698 16.6327L12.0409 14.8274Z" fill="white"/>
</g>
<defs>
<clipPath id="clip0_5_161">
<rect width="28.8" height="28.8" fill="white" transform="matrix(-1 0 0 1 38.3999 9.59961)"/>
</clipPath>
</defs>
</svg>
