<svg width="250" height="250" viewBox="0 0 250 250" fill="none" xmlns="http://www.w3.org/2000/svg">
<path d="M185.437 153.398H225.423V122.553H185.437V153.398Z" fill="#BDBDBD"/>
<path d="M188.287 150.709H193.107V145.264H188.287V150.709Z" fill="white"/>
<path d="M213.227 122.636H208.684V129.216H213.227V122.636Z" fill="#FAFAFA"/>
<path d="M213.227 146.725H208.684V153.304H213.227V146.725Z" fill="#FAFAFA"/>
<path d="M195.414 153.614C195.342 153.614 195.287 146.83 195.287 138.463C195.287 130.096 195.342 123.311 195.414 123.311C195.486 123.311 195.542 130.096 195.542 138.463C195.542 146.83 195.486 153.614 195.414 153.614Z" fill="#E0E0E0"/>
<path d="M169.124 206.516H238.118V153.299H169.124V206.516Z" fill="#BDBDBD"/>
<path d="M174.06 201.868H182.372V192.472H174.06V201.868Z" fill="white"/>
<path d="M217.074 153.437H209.238V164.792H217.074V153.437Z" fill="#FAFAFA"/>
<path d="M217.074 195.001H209.238V206.356H217.074V195.001Z" fill="#FAFAFA"/>
<path d="M186.35 206.881C186.229 206.881 186.129 195.178 186.129 180.74C186.129 166.303 186.229 154.599 186.35 154.599C186.472 154.599 186.566 166.303 186.566 180.74C186.566 195.178 186.472 206.881 186.35 206.881Z" fill="#E0E0E0"/>
<path d="M235.927 42.6131L239.624 50.1002L247.891 51.301L241.909 57.1336L243.32 65.3622L235.927 61.4776L228.54 65.3622L229.951 57.1336L223.969 51.301L232.236 50.1002L235.927 42.6131Z" fill="#EBEBEB"/>
<path d="M35.8455 139.315L38.1752 144.035L43.388 144.793L39.6195 148.468L40.5049 153.658L35.8455 151.207L31.1917 153.658L32.0771 148.468L28.3086 144.793L33.5214 144.035L35.8455 139.315Z" fill="#EBEBEB"/>
<path d="M38.7395 98.1993L43.908 108.68L55.4735 110.357L47.1065 118.519L49.082 130.035L38.7395 124.601L28.3914 130.035L30.367 118.519L22 110.357L33.5655 108.68L38.7395 98.1993Z" fill="#EBEBEB"/>
<path d="M232.639 76.4297L234.864 80.9453L239.85 81.6702L236.247 85.1896L237.094 90.1534L232.639 87.8071L228.179 90.1534L229.031 85.1896L225.423 81.6702L230.409 80.9453L232.639 76.4297Z" fill="#EBEBEB"/>
<path d="M159.467 3.24628L161.697 7.7618L166.683 8.48671L163.075 12.0006L163.927 16.9644L159.467 14.6236L155.013 16.9644L155.865 12.0006L152.257 8.48671L157.243 7.7618L159.467 3.24628Z" fill="#EBEBEB"/>
<path d="M210.477 51.5778L211.938 54.5328L215.197 55.0087L212.84 57.3107L213.393 60.559L210.477 59.0206L207.555 60.559L208.114 57.3107L205.757 55.0087L209.016 54.5328L210.477 51.5778Z" fill="#EBEBEB"/>
<path d="M75.8416 200.822L78.6804 206.577L85.0386 207.501L80.4401 211.984L81.5247 218.314L75.8416 215.326L70.1584 218.314L71.243 211.984L66.6445 207.501L72.9972 206.577L75.8416 200.822Z" fill="#EBEBEB"/>
<path d="M83.3456 195.095L84.5188 197.474L87.1417 197.856L85.2437 199.71L85.6919 202.322L83.3456 201.088L80.9938 202.322L81.442 199.71L79.5439 197.856L82.1725 197.474L83.3456 195.095Z" fill="#EBEBEB"/>
<path d="M188.292 173.048L190.793 178.111L196.377 178.919L192.337 182.865L193.289 188.426L188.292 185.798L183.295 188.426L184.247 182.865L180.207 178.919L185.791 178.111L188.292 173.048Z" fill="#790B0A"/>
<path d="M200.212 168.56L201.391 170.945L204.025 171.327L202.121 173.186L202.569 175.809L200.212 174.57L197.86 175.809L198.308 173.186L196.405 171.327L199.039 170.945L200.212 168.56Z" fill="#790B0A"/>
<path d="M184.591 36.775L186.561 30.6547C184.683 26.8737 184.113 22.5768 184.939 18.4371C185.766 14.2974 187.942 10.5488 191.128 7.77854C194.313 5.00831 198.327 3.37297 202.541 3.12873C206.756 2.88448 210.932 4.04513 214.416 6.42885C217.9 8.81256 220.495 12.2847 221.794 16.3012C223.093 20.3177 223.023 24.6517 221.595 28.6242C220.167 32.5968 217.462 35.9833 213.903 38.2534C210.344 40.5235 206.132 41.5488 201.928 41.1687C197.825 40.8893 193.944 39.2092 190.932 36.4097L184.591 36.775Z" fill="#FAFAFA"/>
<path d="M184.591 36.775L185.011 36.7418L186.234 36.6533L190.932 36.3323C193.261 38.4862 196.129 39.97 199.233 40.6265C200.191 40.8394 201.164 40.9782 202.144 41.0415L203.693 41.1024C204.213 41.1024 204.75 41.0415 205.287 41.0139C210.141 40.5734 214.639 38.2806 217.848 34.6114C219.657 32.5732 220.999 30.1655 221.783 27.5559C222.585 24.7672 222.748 21.8334 222.259 18.9731C222.137 18.2378 221.967 17.5113 221.749 16.7983C221.651 16.4372 221.531 16.0824 221.39 15.7359C221.251 15.3817 221.13 15.0275 220.98 14.6789C220.364 13.2715 219.584 11.9416 218.656 10.7168C218.194 10.1062 217.693 9.52582 217.156 8.97919C216.896 8.70046 216.619 8.43804 216.326 8.1934C216.044 7.94438 215.773 7.67323 215.474 7.44635L214.567 6.77123L214.113 6.43921L213.626 6.15146L212.669 5.59809C212.342 5.41547 211.999 5.27713 211.667 5.11112C209.124 3.90752 206.343 3.28968 203.529 3.30309C200.716 3.3165 197.941 3.96081 195.409 5.18859C191.022 7.29546 187.615 11.0113 185.897 15.5643C185.802 15.8189 185.714 16.0734 185.625 16.3224C185.525 16.5681 185.446 16.8217 185.387 17.0805C185.26 17.5897 185.138 18.0932 185.017 18.5857C184.849 19.5507 184.734 20.5243 184.674 21.502C184.55 24.6646 185.215 27.8083 186.61 30.6492L185.127 35.1758L184.734 36.3489C184.646 36.6146 184.596 36.7529 184.596 36.7529C184.596 36.7529 184.629 36.6256 184.712 36.3656L185.066 35.2035L186.489 30.616V30.6603C185.056 27.8141 184.364 24.6531 184.474 21.4688C184.526 20.4802 184.635 19.4954 184.801 18.5193C184.923 18.0213 185.05 17.5122 185.172 16.9975C185.23 16.7359 185.308 16.4788 185.404 16.2284C185.498 15.9738 185.587 15.7193 185.681 15.4592C186.605 12.9768 188.034 10.7133 189.879 8.81203C191.723 6.91075 193.942 5.41308 196.395 4.41383C198.848 3.41458 201.482 2.93551 204.13 3.00696C206.778 3.07841 209.382 3.69882 211.778 4.8289C212.115 4.98938 212.464 5.13326 212.796 5.3214L213.77 5.90244L214.257 6.19573L214.722 6.53328L215.64 7.21393C215.945 7.45188 216.221 7.72303 216.509 7.97205C216.804 8.22189 217.085 8.48792 217.35 8.76891C217.894 9.32671 218.402 9.91814 218.872 10.5397C219.818 11.7716 220.614 13.1108 221.246 14.5295C221.395 14.8837 221.517 15.2489 221.655 15.603C221.802 15.9638 221.926 16.3335 222.026 16.7098C222.245 17.4354 222.415 18.1749 222.535 18.9233C223.035 21.826 222.869 24.8044 222.048 27.6333C221.262 30.2927 219.904 32.748 218.07 34.8272C214.812 38.5312 210.255 40.8413 205.342 41.2795C204.789 41.2795 204.235 41.357 203.726 41.357L202.16 41.2906C201.171 41.2214 200.189 41.0771 199.222 40.8589C196.107 40.1768 193.237 38.6577 190.921 36.4652H190.965L186.223 36.7142L185.017 36.7695C184.723 36.775 184.591 36.775 184.591 36.775Z" fill="#263238"/>
<path d="M192.814 21.4632L195.952 18.7462L201.242 24.1747L213.089 14.3026L215.602 17.4236L200.417 29.7914L192.814 21.4632Z" fill="#790B0A"/>
<path d="M131.837 168.832L145.727 242.192L158.415 218.746L182.465 232.862L156.932 161.427L131.837 168.832Z" fill="#790B0A"/>
<g opacity="0.3">
<path opacity="0.3" d="M136.513 193.506C137.835 193.755 139.198 193.68 140.484 193.285C141.77 192.891 142.94 192.19 143.895 191.243C145.163 189.937 146.004 188.155 147.597 187.281C149.031 186.495 150.796 186.606 152.373 187.043C153.95 187.48 155.433 188.205 157.01 188.615C158.566 189.011 160.186 189.094 161.774 188.858C163.363 188.623 164.889 188.073 166.263 187.242L162.256 176.119L143.663 173.795L134.809 184.448L136.513 193.506Z" fill="black"/>
</g>
<path d="M157.513 215.835C157.436 215.835 155.366 208.231 152.893 198.819C150.419 189.406 148.466 181.747 148.554 181.731C148.643 181.714 150.696 189.323 153.169 198.747C155.643 208.171 157.591 215.813 157.513 215.835Z" fill="#263238"/>
<path d="M133.874 172.65L119.989 246.005L107.295 222.558L83.2456 236.675L108.778 165.246L133.874 172.65Z" fill="#790B0A"/>
<g opacity="0.3">
<path opacity="0.3" d="M101.142 186.611C101.142 186.611 105.093 189.86 109.802 188.366C114.511 186.871 117.438 186.551 119.989 188.366C122.54 190.181 129.441 196.085 129.441 196.085L131.04 187.624L121.771 174.896L112.098 176.85L105.214 177.519L102.652 182.373L101.142 186.611Z" fill="black"/>
</g>
<path d="M215.28 106.433C215.28 111.696 208.557 116.228 207.572 121.203C206.559 126.327 211.019 133.084 209.066 137.804C207.113 142.524 199.105 144.218 196.266 148.484C193.428 152.751 194.922 160.741 191.286 164.382C187.65 168.024 179.665 166.491 175.388 169.363C171.11 172.235 169.505 180.17 164.708 182.162C159.993 184.116 153.236 179.656 148.106 180.668C143.126 181.653 138.6 188.377 133.337 188.377C128.074 188.377 123.537 181.653 118.562 180.668C113.438 179.656 106.681 184.116 101.961 182.162C97.2406 180.209 95.5528 172.202 91.2863 169.363C87.0198 166.524 79.0291 168.018 75.3824 164.382C71.7357 160.747 73.274 152.762 70.402 148.484C67.53 144.207 59.5947 142.602 57.6081 137.804C55.6215 133.006 60.1149 126.333 59.1022 121.203C58.1172 116.223 51.3882 111.696 51.3882 106.433C51.3882 101.171 58.1172 96.6332 59.1022 91.6584C60.1149 86.5341 55.6491 79.7775 57.6081 75.0572C59.567 70.337 67.5688 68.6436 70.402 64.3827C73.2353 60.1217 71.7467 52.1255 75.3824 48.4788C79.018 44.8321 87.0032 46.3704 91.2863 43.4984C95.5694 40.6264 97.1631 32.6911 101.961 30.7045C106.759 28.7179 113.432 33.2113 118.562 32.1986C123.542 31.2136 128.074 24.4846 133.337 24.4846C138.6 24.4846 143.132 31.2136 148.106 32.1986C153.231 33.2113 159.987 28.7455 164.708 30.7045C169.505 32.6911 171.121 40.6652 175.388 43.4984C179.654 46.3317 187.645 44.8431 191.286 48.4788C194.927 52.1144 193.394 60.0996 196.266 64.3827C199.138 68.6658 207.074 70.2595 209.066 75.0572C211.058 79.855 206.559 86.5286 207.572 91.6584C208.557 96.6332 215.28 101.154 215.28 106.433Z" fill="#790B0A"/>
<path d="M114.162 60.498C114.162 60.498 114.101 60.4261 114.013 60.2711C113.924 60.1162 113.786 59.8672 113.637 59.596C113.31 59.0094 112.862 58.1462 112.331 57.0726C111.263 54.9256 109.879 51.9042 108.546 48.4954C107.212 45.0866 106.188 41.9213 105.519 39.6414C105.187 38.4849 104.932 37.5497 104.772 36.8746C104.7 36.5758 104.639 36.3212 104.595 36.122C104.566 36.0363 104.551 35.9467 104.55 35.8564C104.593 35.9371 104.627 36.0225 104.65 36.1109L104.877 36.8469C105.093 37.5276 105.375 38.4462 105.712 39.5584C106.432 41.8439 107.489 44.9815 108.811 48.4124C110.134 51.8433 111.495 54.837 112.513 57.0062L113.736 59.5684L114.063 60.2656C114.103 60.3399 114.136 60.4177 114.162 60.498Z" fill="#263238"/>
<path d="M121.456 57.7256C121.359 57.5324 121.287 57.328 121.24 57.1169C121.124 56.7185 120.969 56.1375 120.786 55.4181C120.421 53.9848 119.967 51.9816 119.558 49.7571C119.148 47.5325 118.861 45.5016 118.695 44.0297C118.606 43.2937 118.551 42.6961 118.518 42.281C118.492 42.0678 118.492 41.8523 118.518 41.6391C118.581 41.8446 118.624 42.0559 118.645 42.27L118.91 44.002C119.132 45.4684 119.464 47.4883 119.857 49.7073C120.25 51.9263 120.687 53.9295 120.997 55.3738C121.146 56.0489 121.268 56.6244 121.367 57.0893C121.418 57.2979 121.448 57.5111 121.456 57.7256Z" fill="#263238"/>
<path d="M134.322 56.4473C134.239 56.4473 134.034 50.2385 133.863 42.5853C133.691 34.9322 133.614 28.7178 133.691 28.7123C133.769 28.7068 133.979 34.9156 134.151 42.5798C134.322 50.244 134.4 56.4473 134.322 56.4473Z" fill="#263238"/>
<path d="M147.27 43.692C147.348 43.692 146.451 46.8186 145.273 50.6257C144.094 54.4329 143.059 57.4931 143.004 57.471C142.949 57.4488 143.823 54.3444 145.002 50.5372C146.18 46.73 147.187 43.6699 147.27 43.692Z" fill="#263238"/>
<path d="M152.55 59.7342C152.561 59.6426 152.585 59.5531 152.622 59.4686L152.871 58.7382C153.092 58.1073 153.424 57.1998 153.867 56.082C154.736 53.8685 155.975 50.7751 157.392 47.3996C158.808 44.024 160.125 40.986 161.094 38.7946C161.57 37.7322 161.963 36.8578 162.261 36.2049L162.588 35.5076C162.671 35.3527 162.715 35.2697 162.726 35.2752C162.706 35.3623 162.678 35.4475 162.643 35.5298L162.361 36.2491L161.282 38.8777C160.336 41.1243 159.069 44.1568 157.657 47.5158C156.246 50.8747 154.996 53.9072 154.055 56.1594L152.976 58.7824L152.672 59.4907C152.641 59.5766 152.6 59.6584 152.55 59.7342Z" fill="#263238"/>
<path d="M159.445 63.3423C159.529 63.1466 159.635 62.961 159.76 62.7889C159.982 62.4348 160.314 61.9312 160.723 61.317C161.553 60.094 162.748 58.4228 164.137 56.641C165.526 54.8591 166.86 53.3207 167.845 52.214C168.338 51.6606 168.747 51.2235 169.035 50.9246C169.173 50.7589 169.331 50.6102 169.505 50.4819C169.398 50.6707 169.268 50.8455 169.118 51.0021C168.819 51.3673 168.443 51.8156 168.011 52.3468C167.065 53.4868 165.764 55.0639 164.375 56.8457C162.986 58.6276 161.775 60.2711 160.9 61.4664L159.865 62.8775C159.742 63.0466 159.601 63.2024 159.445 63.3423Z" fill="#263238"/>
<path d="M169.527 71.5876C169.472 71.5322 173.855 67.3709 179.305 62.2965C184.756 57.2221 189.227 53.1548 189.266 53.2101C189.305 53.2654 184.944 57.4323 179.488 62.5068C174.032 67.5812 169.583 71.6485 169.527 71.5876Z" fill="#263238"/>
<path d="M187.113 73.3085C186.58 73.646 186.025 73.9491 185.453 74.2161C184.413 74.7694 183.002 75.5386 181.441 76.4295C179.881 77.3205 178.442 78.062 177.374 78.56C176.82 78.809 176.411 79.0027 176.101 79.1134C175.95 79.1922 175.787 79.2482 175.62 79.2794C176.153 78.942 176.708 78.6388 177.28 78.3719C178.32 77.8185 179.731 77.0493 181.292 76.1584C182.852 75.2675 184.291 74.4983 185.359 74.0279C185.912 73.7789 186.322 73.5852 186.632 73.4745C186.782 73.3934 186.945 73.3373 187.113 73.3085Z" fill="#263238"/>
<path d="M203.377 80.0541C203.405 80.1315 198.192 82.0351 191.756 84.3095C185.321 86.5839 180.047 88.3602 180.025 88.2882C180.003 88.2163 185.205 86.3072 191.646 84.0328C198.087 81.7585 203.35 79.9821 203.377 80.0541Z" fill="#263238"/>
<path d="M208.557 109.643C208.557 109.72 202.885 109.25 195.907 108.586C188.929 107.922 183.273 107.319 183.284 107.236C183.295 107.153 188.951 107.634 195.934 108.298C202.918 108.962 208.562 109.565 208.557 109.643Z" fill="#263238"/>
<path d="M204.39 136.183C204.357 136.255 199.061 133.82 192.564 130.754C186.068 127.688 180.827 125.137 180.861 125.065C180.894 124.993 186.189 127.423 192.686 130.494C199.183 133.565 204.423 136.111 204.39 136.183Z" fill="#263238"/>
<path d="M186.97 161.433C186.909 161.483 183.096 157.05 178.442 151.539C173.788 146.027 170.07 141.506 170.142 141.456C170.214 141.406 174.015 145.833 178.669 151.35C183.323 156.868 187.031 161.378 186.97 161.433Z" fill="#263238"/>
<path d="M172.427 164.792C172.255 164.6 172.101 164.393 171.967 164.172C171.685 163.763 171.287 163.159 170.811 162.412C169.848 160.913 168.559 158.815 167.197 156.464C165.836 154.112 164.674 151.943 163.877 150.377C163.473 149.585 163.147 148.943 162.936 148.495C162.811 148.267 162.708 148.028 162.626 147.781C162.783 147.988 162.92 148.208 163.036 148.44C163.302 148.927 163.645 149.546 164.06 150.282C164.917 151.837 166.113 153.985 167.468 156.336C168.824 158.688 170.086 160.797 171.005 162.318C171.436 163.049 171.801 163.652 172.084 164.128C172.222 164.336 172.337 164.559 172.427 164.792Z" fill="#263238"/>
<path d="M163.396 177.464C163.396 177.464 163.34 177.392 163.252 177.237L162.892 176.562C162.577 175.97 162.151 175.107 161.642 174.033C160.623 171.881 159.312 168.859 158.067 165.439C156.822 162.02 155.881 158.865 155.3 156.585C154.996 155.434 154.747 154.494 154.625 153.846C154.564 153.547 154.514 153.293 154.47 153.094C154.448 153.007 154.435 152.918 154.431 152.828C154.476 152.907 154.508 152.993 154.525 153.083L154.735 153.819C154.929 154.505 155.184 155.418 155.494 156.53C156.147 158.816 157.115 161.959 158.36 165.384C159.605 168.809 160.878 171.814 161.852 173.989L163.014 176.551C163.136 176.828 163.241 177.06 163.329 177.248C163.36 177.317 163.383 177.39 163.396 177.464Z" fill="#263238"/>
<path d="M145.101 168.56C144.981 167.924 144.902 167.281 144.863 166.635C144.736 165.445 144.531 163.801 144.232 162.003C143.934 160.204 143.585 158.589 143.319 157.421C143.145 156.796 143.012 156.16 142.921 155.517C143.003 155.671 143.066 155.835 143.109 156.004C143.22 156.325 143.358 156.79 143.519 157.371C143.834 158.528 144.21 160.138 144.515 161.959C144.779 163.501 144.964 165.056 145.068 166.618C145.107 167.216 145.129 167.725 145.129 168.04C145.143 168.214 145.134 168.389 145.101 168.56Z" fill="#263238"/>
<path d="M133.132 184.492C133.119 184.398 133.119 184.303 133.132 184.21C133.132 183.988 133.132 183.717 133.132 183.396C133.132 182.688 133.132 181.664 133.132 180.403C133.176 177.874 133.292 174.387 133.491 170.541C133.691 166.696 133.94 163.209 134.144 160.691C134.244 159.43 134.338 158.412 134.41 157.709C134.449 157.388 134.476 157.117 134.499 156.901C134.505 156.805 134.524 156.71 134.554 156.619C134.567 156.714 134.567 156.811 134.554 156.906C134.554 157.122 134.554 157.393 134.515 157.72C134.471 158.467 134.416 159.474 134.344 160.702C134.194 163.265 133.995 166.729 133.79 170.552C133.585 174.376 133.442 177.885 133.347 180.408C133.303 181.637 133.264 182.622 133.237 183.396C133.237 183.723 133.204 183.988 133.193 184.21C133.186 184.306 133.166 184.401 133.132 184.492Z" fill="#263238"/>
<path d="M123.404 156.619C123.4 157.095 123.344 157.57 123.238 158.035C123.094 158.898 122.861 160.088 122.557 161.389C122.253 162.689 121.932 163.862 121.677 164.709C121.567 165.172 121.405 165.621 121.196 166.048C121.245 165.575 121.34 165.108 121.478 164.654L122.275 161.333C122.563 160.088 122.828 158.959 123.039 158.013C123.115 157.538 123.238 157.071 123.404 156.619Z" fill="#263238"/>
<path d="M105.813 148.191C105.088 149.389 104.279 150.536 103.394 151.622C102.582 152.764 101.697 153.853 100.744 154.881C101.467 153.681 102.275 152.535 103.162 151.45C103.97 150.305 104.856 149.216 105.813 148.191Z" fill="#263238"/>
<path d="M96.5875 141.971C96.6428 142.021 93.2119 146.055 88.9178 150.974C84.6236 155.894 81.0875 159.828 81.0267 159.789C80.9658 159.751 84.4022 155.706 88.6964 150.786C92.9906 145.867 96.5266 141.915 96.5875 141.971Z" fill="#263238"/>
<path d="M91.9669 135.104C90.6098 136.412 89.1858 137.65 87.7004 138.811C85.2932 140.792 83.3011 142.353 83.2734 142.292C84.6315 140.986 86.0555 139.75 87.5399 138.59C88.9562 137.354 90.4337 136.191 91.9669 135.104Z" fill="#263238"/>
<path d="M86.5659 124.75C86.5991 124.822 81.818 127.201 75.8803 130.057C69.9427 132.912 65.1117 135.175 65.073 135.104C65.0343 135.032 69.8209 132.658 75.7586 129.797C81.6963 126.936 86.5327 124.678 86.5659 124.75Z" fill="#263238"/>
<path d="M84.3967 119.587C84.2377 119.657 84.0703 119.705 83.8986 119.731C83.5721 119.808 83.1018 119.908 82.5207 120.013C81.3531 120.234 79.7262 120.478 77.9222 120.661C76.1182 120.843 74.4747 120.921 73.2849 120.937C72.6928 120.937 72.2114 120.937 71.8794 120.937C71.7063 120.949 71.5325 120.932 71.3647 120.887C71.9995 120.8 72.6388 120.75 73.2794 120.738C74.4636 120.666 76.0961 120.555 77.8945 120.373C79.693 120.19 81.3144 119.98 82.4875 119.819C83.1176 119.697 83.7556 119.619 84.3967 119.587Z" fill="#263238"/>
<path d="M82.6425 107.662C82.3202 107.688 81.9963 107.688 81.6741 107.662L79.04 107.529C76.8265 107.418 73.7498 107.319 70.3576 107.335C66.9654 107.352 63.8887 107.49 61.6697 107.623L59.0412 107.783C58.7197 107.82 58.3959 107.831 58.0728 107.817C58.3871 107.741 58.7074 107.693 59.0301 107.673C59.6499 107.601 60.5463 107.512 61.6531 107.418C63.8666 107.236 66.9544 107.07 70.3521 107.047C73.7498 107.025 76.8321 107.164 79.0566 107.324C80.1633 107.407 81.0653 107.485 81.6851 107.551C82.0064 107.565 82.3263 107.602 82.6425 107.662Z" fill="#263238"/>
<path d="M83.7269 97.192C83.7269 97.2695 80.1245 96.3343 75.7252 95.1058C71.3259 93.8773 67.7787 92.8259 67.8009 92.7484C67.823 92.671 71.4033 93.6006 75.8026 94.8291C80.2019 96.0576 83.7491 97.1145 83.7269 97.192Z" fill="#263238"/>
<path d="M86.0459 88.4267C85.957 88.4214 85.8693 88.4028 85.7859 88.3713L85.0499 88.15C84.419 87.9508 83.506 87.6409 82.3937 87.2369C79.4874 86.1698 76.6391 84.9507 73.8607 83.5847C71.0833 82.2171 68.3809 80.7024 65.7649 79.047C64.7633 78.4106 63.9609 77.8794 63.4186 77.4976L62.7988 77.0494C62.6605 76.9442 62.5885 76.8889 62.594 76.8778C62.6777 76.9115 62.7575 76.9542 62.832 77.0051L63.485 77.4035C64.0383 77.7577 64.8573 78.2612 65.87 78.8755C67.9009 80.104 70.7452 81.7253 73.988 83.3025C77.2307 84.8796 80.2521 86.1634 82.4656 87.0266C83.5724 87.4527 84.4633 87.7903 85.0886 88.0227L85.8025 88.2939C85.8872 88.3313 85.9686 88.3757 86.0459 88.4267Z" fill="#263238"/>
<path d="M91.253 79.5728C91.2087 79.6336 88.4086 77.7411 84.9999 75.3395C81.5911 72.9378 78.863 70.9402 78.9128 70.8738C78.9626 70.8074 81.7571 72.7054 85.1714 75.1071C88.5857 77.5087 91.2972 79.523 91.253 79.5728Z" fill="#263238"/>
<path d="M80.2467 52.6899C80.2467 52.6899 80.3241 52.7342 80.4569 52.8393L81.0103 53.3263L83.0522 55.1303L89.7536 61.1122L96.4826 67.061L98.519 68.8705L99.0723 69.3741C99.1392 69.429 99.1987 69.4922 99.2494 69.5622C99.2494 69.5622 99.172 69.5235 99.0336 69.4183L98.4802 68.959C97.9767 68.5551 97.2628 67.9574 96.383 67.2159C94.6232 65.7329 92.2216 63.6577 89.5931 61.328C86.9646 58.9983 84.6128 56.8513 82.9526 55.2797C82.1115 54.4939 81.4364 53.8575 80.9716 53.4038L80.4459 52.8836C80.3131 52.7619 80.2356 52.6954 80.2467 52.6899Z" fill="#263238"/>
<path d="M97.5059 53.1935C97.5059 53.1935 97.6553 53.3152 97.8821 53.5753C98.109 53.8354 98.4355 54.2172 98.8173 54.6821C99.5865 55.6449 100.61 57.0062 101.673 58.5557C102.735 60.1051 103.626 61.5549 104.24 62.6229C104.55 63.1763 104.794 63.5913 104.949 63.8957C105.044 64.0471 105.119 64.211 105.17 64.3827C104.764 63.8546 104.395 63.3 104.063 62.7225C103.405 61.6822 102.486 60.26 101.429 58.7106C100.372 57.1612 99.3763 55.7943 98.6624 54.8038C98.2452 54.2905 97.859 53.7528 97.5059 53.1935Z" fill="#263238"/>
<g opacity="0.2">
<path opacity="0.2" d="M75.3877 48.4843L99.4649 69.5622L105.447 64.7755L91.4797 43.3711C91.4797 43.3711 90.4062 44.1569 87.6061 44.9538C84.9333 45.7229 76.9925 45.9277 75.3877 48.4843Z" fill="black"/>
</g>
<g opacity="0.2">
<path opacity="0.2" d="M102.188 30.6547L113.942 60.0774L121.456 57.7256L118.95 32.2041C118.95 32.2041 117.66 32.5085 114.788 32.1432C112.005 31.7891 105.259 29.1495 102.188 30.6547Z" fill="black"/>
</g>
<g opacity="0.3">
<path opacity="0.3" d="M133.531 24.4956L134.322 56.4472L141.361 56.7848L148.488 32.2594C147.008 31.9653 145.599 31.3824 144.344 30.5439C141.909 28.9834 136.94 24.2355 133.531 24.4956Z" fill="black"/>
</g>
<g opacity="0.2">
<path opacity="0.2" d="M164.231 30.5329L152.55 59.9889L158.891 63.0269L174.967 43.183C173.759 42.1629 172.728 40.9493 171.918 39.5916C170.402 37.1401 167.79 31.5124 164.231 30.5329Z" fill="black"/>
</g>
<g opacity="0.2">
<path opacity="0.2" d="M191.668 48.9103L169.909 71.5986L174.757 78.1339L196.017 63.9454C195.317 62.656 194.844 61.2559 194.617 59.8062C194.108 57.0393 194.036 52.0147 191.668 48.9103Z" fill="black"/>
</g>
<g opacity="0.2">
<path opacity="0.2" d="M208.844 74.5092L179.543 86.5672L181.972 94.0543L207.466 91.2875C207.466 91.2875 207.306 90.5017 207.643 87.6297C207.964 84.8462 210.908 78.6263 208.844 74.5092Z" fill="black"/>
</g>
<g opacity="0.2">
<path opacity="0.2" d="M215.336 106.433L183.39 107.54L183.125 114.585L207.473 121.712C207.634 120.698 207.96 119.717 208.436 118.807C210.251 115.42 215.336 110.639 215.336 106.433Z" fill="black"/>
</g>
<g opacity="0.2">
<path opacity="0.2" d="M209.442 136.636L180.031 125.176L177.059 131.59L197.075 147.433C198.127 146.425 199.291 145.541 200.544 144.799C202.979 143.244 208.767 140.726 209.442 136.636Z" fill="black"/>
</g>
<g opacity="0.2">
<path opacity="0.2" d="M166.185 136.183L158.902 142.27C159.456 142.823 169.156 159.336 175.138 169.529C175.216 169.462 175.297 169.399 175.382 169.341C179.316 166.707 186.322 167.764 190.273 165.157L166.185 136.183Z" fill="black"/>
<path opacity="0.2" d="M152.805 147.737L141.937 151.445L147.083 180.95C147.417 180.833 147.759 180.738 148.107 180.668C153.231 179.655 159.988 184.116 164.708 182.162C165.354 181.885 165.955 181.512 166.49 181.055L152.805 147.737Z" fill="black"/>
<path opacity="0.2" d="M132.961 188.365L134.693 149.818L125.285 147.433L118.296 180.635L118.551 180.679C123.421 181.625 127.853 188.033 132.961 188.365Z" fill="black"/>
<path opacity="0.2" d="M109.331 143.271C109.331 143.271 96.9136 159.906 90.417 168.859C90.7176 169.011 91.0095 169.179 91.2913 169.363C95.5578 172.218 97.1681 180.17 101.966 182.162C102.187 182.251 102.414 182.323 102.641 182.389L119.989 149.552L109.331 143.271Z" fill="black"/>
<path opacity="0.2" d="M96.5869 129.88L70.1025 148.08C70.2021 148.213 70.3128 148.34 70.4014 148.479C73.2789 152.773 71.746 160.736 75.3817 164.377C75.7173 164.707 76.0885 164.998 76.4884 165.246C85.846 154.698 102.646 135.762 103.255 135.104L96.5869 129.88Z" fill="black"/>
<path opacity="0.2" d="M90.5171 116.881L59.2018 121.939C59.7054 126.963 55.7432 133.305 57.6081 137.798C57.7204 138.073 57.8556 138.338 58.012 138.59C68.9688 133.134 91.8618 121.784 92.8136 121.723L90.5171 116.881Z" fill="black"/>
<path opacity="0.2" d="M88.8072 99.4388L59.2073 90.9003C59.1797 91.1548 59.1465 91.4094 59.1022 91.6584C58.1172 96.6387 51.3882 101.171 51.3882 106.433C51.3897 106.784 51.4193 107.134 51.4767 107.479H87.6064L88.8072 99.4388Z" fill="black"/>
<path opacity="0.2" d="M57.7295 74.8303C68.7969 80.7569 90.4172 92.7485 90.4172 92.7485L95.7406 82.6384L70.7393 63.8237C70.6286 64.0174 70.5234 64.2166 70.4017 64.3771C67.585 68.5772 59.8766 70.2152 57.7295 74.8303Z" fill="black"/>
</g>
<path d="M215.28 106.433L215.247 106.079C215.234 105.732 215.185 105.387 215.103 105.05C214.781 103.723 214.218 102.466 213.443 101.342C212.491 99.815 211.052 98.1051 209.569 95.9414C208.732 94.7904 208.089 93.5099 207.666 92.1508C207.305 90.5644 207.305 88.9174 207.666 87.3309C207.976 85.6432 208.479 83.9056 208.916 82.0628C209.353 80.2201 209.763 78.228 209.353 76.1916C209.122 75.1608 208.65 74.1995 207.976 73.386C207.253 72.5577 206.427 71.825 205.519 71.2057C203.681 69.8997 201.568 68.8594 199.548 67.4981C198.503 66.8243 197.554 66.0128 196.726 65.0854C195.913 64.0788 195.322 62.9113 194.993 61.66C194.285 59.1422 194.125 56.4528 193.588 53.7634C193.353 52.394 192.891 51.0735 192.221 49.8566C191.493 48.6315 190.389 47.6745 189.072 47.1285C187.714 46.5825 186.291 46.2106 184.839 46.0217C183.373 45.7783 181.867 45.6067 180.362 45.3411C178.82 45.1187 177.325 44.6458 175.935 43.9411C174.558 43.1129 173.391 41.9763 172.527 40.6208C171.608 39.3038 170.817 37.8872 169.976 36.4871C169.17 35.0547 168.205 33.7181 167.098 32.5029C165.958 31.2736 164.402 30.5106 162.732 30.3613C161.026 30.2982 159.32 30.4979 157.674 30.9534C156.014 31.3574 154.31 31.8499 152.566 32.1764C150.804 32.5916 148.966 32.5574 147.221 32.0768C145.52 31.4093 143.928 30.4897 142.501 29.3486C141.023 28.2419 139.584 27.1352 138.007 26.1502C136.43 25.1652 134.643 24.4513 132.783 24.6616H132.435C132.319 24.6616 132.208 24.7114 132.097 24.7335C131.87 24.7889 131.638 24.8276 131.417 24.894C130.971 25.0358 130.535 25.2058 130.111 25.4031C129.255 25.8102 128.433 26.2858 127.654 26.8253C126.082 27.932 124.594 29.1384 122.978 30.234C122.173 30.7972 121.322 31.2897 120.432 31.706C119.521 32.1137 118.545 32.3591 117.549 32.4309C115.552 32.4437 113.565 32.1622 111.65 31.5953C109.722 31.045 107.756 30.6399 105.768 30.3835C104.775 30.2858 103.773 30.3531 102.802 30.5827C101.835 30.8515 100.943 31.3401 100.195 32.0104C98.6681 33.344 97.6056 35.1369 96.5431 36.8966C95.54 38.7393 94.3673 40.4844 93.0403 42.1094C92.3377 42.9144 91.4937 43.5839 90.5501 44.0849C89.5867 44.5404 88.575 44.8856 87.5342 45.1142C85.4535 45.5735 83.3286 45.7672 81.2313 46.1435C79.134 46.5198 76.9925 47.1119 75.4762 48.5838C74.7444 49.3634 74.1795 50.2842 73.8161 51.2898C73.4498 52.3041 73.1811 53.351 73.0137 54.4164C72.6264 56.5524 72.4604 58.7438 71.907 60.8964C71.6692 61.9889 71.2721 63.0404 70.7283 64.0174C70.1554 64.9853 69.4044 65.8359 68.5148 66.5242C66.7662 67.9297 64.7796 68.9701 62.876 70.1321C61.9223 70.7061 61.0072 71.342 60.1368 72.0357C59.2708 72.7277 58.5425 73.5762 57.9897 74.537C57.4626 75.5155 57.1958 76.6131 57.215 77.7244C57.2346 78.8415 57.3662 79.9538 57.6079 81.0446C58.0727 83.2581 58.7755 85.4329 59.1518 87.6851C59.3749 88.8409 59.4196 90.0241 59.2846 91.1935C59.1275 92.3599 58.752 93.4863 58.1779 94.5137C57.0213 96.5335 55.5161 98.3098 54.1825 100.191C53.4976 101.119 52.9011 102.108 52.4006 103.146C51.8524 104.159 51.5653 105.293 51.5653 106.444C51.5653 107.596 51.8524 108.73 52.4006 109.742C52.9002 110.781 53.4968 111.771 54.1825 112.697C55.5161 114.579 57.0213 116.355 58.1779 118.375C58.7415 119.383 59.1165 120.486 59.2846 121.629C59.4252 122.782 59.3879 123.951 59.1739 125.093C58.8032 127.367 58.1004 129.548 57.63 131.761C57.3903 132.852 57.2587 133.964 57.2371 135.081C57.2153 136.194 57.4802 137.294 58.0063 138.274C58.5548 139.238 59.2816 140.089 60.1479 140.781C61.0183 141.475 61.9333 142.111 62.887 142.685C64.7906 143.847 66.7606 144.898 68.5314 146.293C69.4195 146.983 70.1703 147.833 70.7449 148.799C71.2927 149.773 71.6901 150.823 71.9236 151.915C72.4438 154.073 72.6208 156.264 73.0303 158.4C73.2022 159.465 73.4726 160.512 73.8383 161.527C74.193 162.532 74.7484 163.455 75.4707 164.239C77.0036 165.727 79.1617 166.319 81.2313 166.696C83.3009 167.072 85.4535 167.249 87.5342 167.725C88.5766 167.954 89.59 168.299 90.5556 168.754C91.4981 169.257 92.3417 169.926 93.0458 170.73C94.3596 172.357 95.5211 174.102 96.5154 175.942C97.5779 177.702 98.6404 179.495 100.168 180.829C100.914 181.498 101.804 181.986 102.769 182.256C103.748 182.504 104.761 182.586 105.768 182.5C107.753 182.233 109.715 181.82 111.639 181.266C113.555 180.694 115.545 180.411 117.544 180.425C118.54 180.5 119.515 180.747 120.427 181.155C121.315 181.573 122.167 182.065 122.972 182.627C124.588 183.734 126.071 184.957 127.648 186.03C128.424 186.574 129.244 187.051 130.1 187.458C130.524 187.654 130.96 187.824 131.406 187.967C131.632 188.028 131.859 188.072 132.086 188.128L132.429 188.2H132.772C134.637 188.41 136.43 187.646 138.002 186.711C139.573 185.776 141.018 184.597 142.49 183.512C143.919 182.372 145.512 181.452 147.215 180.784C148.961 180.307 150.799 180.272 152.561 180.685C154.304 181.017 155.986 181.509 157.669 181.913C159.317 182.364 161.024 182.563 162.732 182.505C164.4 182.35 165.952 181.586 167.092 180.358C168.196 179.138 169.161 177.8 169.97 176.368C170.806 174.974 171.597 173.557 172.516 172.235C173.385 170.881 174.553 169.746 175.93 168.915C177.319 168.209 178.814 167.738 180.357 167.52C181.867 167.249 183.367 167.077 184.834 166.839C186.287 166.641 187.709 166.26 189.067 165.705C190.382 165.157 191.486 164.2 192.216 162.977C192.882 161.759 193.342 160.438 193.577 159.07C194.13 156.381 194.274 153.686 194.988 151.168C195.313 149.917 195.904 148.751 196.72 147.748C197.545 146.818 198.495 146.006 199.542 145.335C201.562 143.974 203.676 142.934 205.508 141.628C206.42 141.01 207.248 140.275 207.97 139.442C208.643 138.631 209.114 137.671 209.342 136.642C209.535 135.648 209.563 134.629 209.425 133.626C209.311 132.664 209.137 131.711 208.905 130.771C208.463 128.928 207.964 127.19 207.655 125.503C207.294 123.916 207.294 122.269 207.655 120.683C208.08 119.324 208.723 118.044 209.558 116.892C211.058 114.728 212.502 113.018 213.432 111.491C214.208 110.368 214.771 109.111 215.092 107.784C215.175 107.446 215.223 107.101 215.236 106.754L215.269 106.406C215.269 106.406 215.269 106.522 215.269 106.754C215.258 107.103 215.214 107.449 215.136 107.789C214.821 109.127 214.258 110.394 213.476 111.524C212.53 113.063 211.097 114.778 209.602 116.942C208.772 118.085 208.138 119.359 207.727 120.71C207.367 122.28 207.367 123.911 207.727 125.48C208.036 127.14 208.54 128.895 208.988 130.737C209.229 131.685 209.414 132.646 209.542 133.615C209.679 134.631 209.651 135.663 209.459 136.67C209.228 137.722 208.75 138.705 208.064 139.536C207.335 140.378 206.5 141.122 205.579 141.749C203.731 143.067 201.623 144.112 199.614 145.468C198.588 146.135 197.658 146.937 196.847 147.853C196.048 148.84 195.471 149.988 195.154 151.218C194.451 153.708 194.296 156.397 193.754 159.103C193.52 160.494 193.054 161.835 192.376 163.071C191.628 164.331 190.495 165.316 189.144 165.882C187.773 166.445 186.336 166.832 184.867 167.033C183.395 167.277 181.89 167.448 180.39 167.719C178.867 167.937 177.391 168.402 176.018 169.097C174.68 169.909 173.544 171.017 172.698 172.334C171.791 173.646 170.999 175.057 170.158 176.463C169.344 177.909 168.372 179.26 167.258 180.491C166.082 181.76 164.477 182.548 162.754 182.705C161.022 182.773 159.29 182.573 157.619 182.112C155.931 181.708 154.249 181.222 152.522 180.895C150.798 180.492 149.001 180.524 147.293 180.989C145.616 181.65 144.047 182.559 142.639 183.684C141.173 184.763 139.728 185.925 138.135 186.899C137.719 187.12 137.327 187.381 136.895 187.563C136.679 187.663 136.469 187.768 136.253 187.856L135.583 188.094C134.676 188.406 133.711 188.519 132.756 188.426L132.396 188.399C132.28 188.399 132.164 188.349 132.042 188.327C131.809 188.271 131.572 188.227 131.345 188.161C130.885 188.019 130.436 187.845 130 187.641C129.132 187.229 128.299 186.745 127.51 186.196C125.922 185.09 124.433 183.883 122.834 182.793C122.039 182.242 121.201 181.757 120.327 181.343C119.443 180.95 118.497 180.712 117.532 180.64C115.56 180.632 113.596 180.913 111.705 181.476C109.761 182.048 107.776 182.472 105.768 182.743C104.742 182.844 103.706 182.774 102.702 182.539C101.697 182.258 100.769 181.751 99.9906 181.056C98.419 179.678 97.3455 177.868 96.283 176.103C95.2985 174.277 94.1462 172.547 92.8411 170.934C92.1611 170.155 91.3432 169.508 90.4284 169.025C89.4853 168.577 88.4938 168.239 87.4734 168.018C85.4148 167.564 83.2954 167.371 81.1815 166.989C80.1165 166.812 79.07 166.538 78.055 166.17C77.0255 165.792 76.084 165.209 75.2881 164.454C74.5328 163.648 73.9541 162.692 73.5893 161.649C73.2156 160.618 72.9396 159.555 72.7647 158.472C72.3774 156.32 72.2114 154.128 71.658 152.003C71.4282 150.939 71.0402 149.915 70.507 148.965C69.9469 148.027 69.2147 147.203 68.3488 146.536C66.6334 145.158 64.6523 144.118 62.7432 142.95C61.78 142.369 60.8558 141.726 59.9763 141.025C59.0812 140.307 58.3301 139.426 57.7628 138.429C57.2164 137.409 56.9419 136.266 56.966 135.109C56.9791 133.964 57.1126 132.823 57.3644 131.706C57.8348 129.492 58.5375 127.279 58.9028 125.065C59.1117 123.95 59.1471 122.81 59.0079 121.684C58.8403 120.566 58.4649 119.488 57.9012 118.508C56.7944 116.516 55.2671 114.75 53.9224 112.852C53.2217 111.907 52.6086 110.899 52.0908 109.842C51.5279 108.79 51.2334 107.615 51.2334 106.422C51.2334 105.229 51.5279 104.054 52.0908 103.002C52.6015 101.949 53.2091 100.944 53.9058 100.003C55.2505 98.1051 56.7502 96.3398 57.879 94.3532C58.4422 93.3705 58.8175 92.2915 58.9858 91.1713C59.1149 90.045 59.0776 88.9057 58.8751 87.7902C58.5043 85.5767 57.8016 83.3633 57.3312 81.1498C57.084 80.0337 56.9524 78.8951 56.9383 77.7521C56.9162 76.5948 57.1926 75.4513 57.7407 74.4318C58.3116 73.4389 59.0622 72.5607 59.9542 71.8421C60.8323 71.1389 61.7566 70.4955 62.721 69.9163C64.6302 68.7487 66.5946 67.7028 68.3267 66.3305C69.1909 65.6636 69.9213 64.8394 70.4793 63.9012C71.0099 62.9491 71.396 61.9233 71.6248 60.8576C72.1394 58.7327 72.3165 56.5469 72.7315 54.3943C72.9045 53.3122 73.1787 52.2487 73.5505 51.2179C73.8842 50.1627 74.465 49.2025 75.2446 48.4171C76.0243 47.6317 76.9802 47.0438 78.0328 46.7024C79.0479 46.3347 80.0944 46.0605 81.1594 45.8834C83.2733 45.5016 85.3927 45.33 87.4512 44.8597C88.4697 44.6318 89.4606 44.2941 90.4062 43.8525C91.3184 43.366 92.1341 42.7172 92.8134 41.9379C94.1185 40.3255 95.2708 38.5952 96.2554 36.7694C97.3178 35.0041 98.3914 33.1946 99.9685 31.8222C100.751 31.1166 101.687 30.6031 102.702 30.3226C103.706 30.0891 104.742 30.02 105.768 30.1178C107.764 30.3847 109.737 30.799 111.672 31.3574C113.562 31.9248 115.526 32.2083 117.499 32.1985C118.455 32.1223 119.391 31.8827 120.266 31.4902C121.143 31.0818 121.982 30.5967 122.773 30.0404C124.378 28.9336 125.866 27.7217 127.454 26.6427C128.242 26.0915 129.075 25.6083 129.945 25.1984C130.38 24.9956 130.827 24.82 131.284 24.6727C131.516 24.6063 131.754 24.5675 131.987 24.5122L132.335 24.4347H132.695C133.65 24.3445 134.614 24.4576 135.523 24.7667L136.192 25.0047C136.408 25.0932 136.618 25.1984 136.834 25.298C137.271 25.4861 137.664 25.7407 138.074 25.962C139.673 26.936 141.112 28.098 142.584 29.1771C143.99 30.3015 145.557 31.2098 147.232 31.872C148.94 32.34 150.738 32.3724 152.461 31.9661C154.188 31.6451 155.87 31.1582 157.558 30.7542C159.229 30.2946 160.961 30.0931 162.693 30.1566C164.416 30.3148 166.02 31.103 167.198 32.3701C168.312 33.6033 169.286 34.9563 170.103 36.4041C170.944 37.8042 171.73 39.2208 172.637 40.5268C173.482 41.8472 174.617 42.9566 175.957 43.7695C177.329 44.467 178.806 44.9326 180.329 45.1474C181.829 45.4186 183.334 45.5901 184.806 45.8336C186.274 46.0372 187.711 46.4239 189.083 46.9846C190.434 47.55 191.569 48.5332 192.321 49.7902C192.997 51.0273 193.462 52.3681 193.699 53.7579C194.252 56.4639 194.396 59.1533 195.093 61.6434C195.413 62.872 195.99 64.0187 196.786 65.0079C197.595 65.9273 198.526 66.7317 199.553 67.3985C201.562 68.7542 203.676 69.8001 205.519 71.1171C206.439 71.7445 207.274 72.4885 208.003 73.3306C208.689 74.1604 209.169 75.1408 209.403 76.1916C209.596 77.2004 209.624 78.2339 209.486 79.2517C209.359 80.2192 209.175 81.1783 208.933 82.1237C208.49 83.972 207.981 85.704 207.671 87.3863C207.311 88.9559 207.311 90.5867 207.671 92.1563C208.083 93.5079 208.717 94.7815 209.547 95.9248C211.036 98.094 212.469 99.7984 213.421 101.342C214.201 102.474 214.764 103.74 215.081 105.078C215.159 105.417 215.203 105.764 215.214 106.112C215.28 106.312 215.28 106.433 215.28 106.433Z" fill="#263238"/>
<path d="M117.942 182.5C118.019 182.5 115.977 190.8 113.382 200.993C110.786 211.187 108.617 219.437 108.54 219.421C108.462 219.404 110.504 211.12 113.1 200.922C115.695 190.723 117.886 182.456 117.942 182.5Z" fill="#263238"/>
<path d="M133.331 156.663C161.075 156.663 183.566 134.172 183.566 106.428C183.566 78.6837 161.075 56.1926 133.331 56.1926C105.587 56.1926 83.0962 78.6837 83.0962 106.428C83.0962 134.172 105.587 156.663 133.331 156.663Z" fill="white"/>
<path d="M149.059 76.819L149.166 76.9938L149.365 77.0426L166.016 81.1149L170.855 122.504L169.217 141.994C154.578 154.957 139.173 157.557 126.303 155.624C113.46 153.694 103.158 147.253 98.667 142.088L98.5312 140.14C98.5312 140.137 98.5314 140.132 98.5312 140.126C98.5309 140.11 98.5301 140.087 98.5293 140.056C98.5277 139.995 98.5254 139.905 98.5225 139.787C98.5165 139.551 98.508 139.203 98.4971 138.759C98.4752 137.871 98.4441 136.596 98.4082 135.048C98.3364 131.951 98.2443 127.762 98.1631 123.395C98.0105 115.194 97.8966 106.399 98.0254 102.998L98.0547 102.391C98.2239 99.6167 99.2377 96.5166 100.311 94.0045C100.845 92.7531 101.389 91.6582 101.841 90.8366C102.067 90.4258 102.268 90.0867 102.432 89.8317C102.564 89.6254 102.661 89.495 102.718 89.4254L116.843 82.3551L117.008 82.2721L117.08 82.1032L119.349 76.7467L145.269 70.6784L149.059 76.819Z" fill="white" stroke="#BDBDBD"/>
<path d="M143.685 53.3096C144.852 48.9656 145.998 44.594 146.402 40.1172C146.806 35.6404 146.435 31.0143 144.653 26.8861C144.382 26.2608 142.141 22.0828 141.466 22.188C140.984 22.2599 142.434 26.1889 142.213 26.615C140.082 30.7486 139.695 35.6017 140.309 40.2113C140.943 44.6877 142.075 49.0793 143.685 53.3041" fill="#263238"/>
<path d="M143.242 36.1551C143.032 24.8829 136.292 15.6139 125.03 16.1396L123.99 16.2503C118.953 16.7813 114.301 19.1887 110.958 22.9938C107.616 26.7988 105.828 31.7227 105.95 36.7859C106.194 46.5529 106.581 57.3437 107.195 62.5343C108.463 73.2753 119.369 73.8176 119.369 73.8176L119.873 80.8841L124.494 85.9032L145.915 72.6223L143.242 36.1551Z" fill="#FFBF9D"/>
<path d="M119.397 73.9007C119.397 73.9007 126.221 73.5853 132.966 68.284C132.966 68.284 130.708 78.0288 119.873 78.1893L119.397 73.9007Z" fill="#FF9A6C"/>
<path d="M112.143 45.5458C112.181 45.9498 112.376 46.3225 112.687 46.5835C112.997 46.8444 113.398 46.9726 113.803 46.9403C114 46.9354 114.194 46.8911 114.373 46.8101C114.553 46.7291 114.714 46.613 114.849 46.4686C114.983 46.3243 115.086 46.1545 115.154 45.9695C115.221 45.7844 115.251 45.5876 115.242 45.3909C115.202 44.9875 115.006 44.6156 114.696 44.3549C114.386 44.0942 113.986 43.9655 113.581 43.9964C113.384 44.0005 113.19 44.0443 113.01 44.1251C112.83 44.2058 112.668 44.3219 112.534 44.4664C112.4 44.6109 112.296 44.781 112.229 44.9664C112.162 45.1518 112.132 45.3489 112.143 45.5458Z" fill="#263238"/>
<path d="M108.723 41.0082C108.933 41.1853 110.007 40.2058 111.661 40.0343C113.316 39.8627 114.611 40.5876 114.771 40.3386C114.849 40.2446 114.616 39.9015 114.046 39.5694C113.279 39.1513 112.402 38.9793 111.534 39.0769C110.674 39.1655 109.865 39.5239 109.221 40.1007C108.75 40.5489 108.618 40.9252 108.723 41.0082Z" fill="#263238"/>
<path d="M126.746 44.3063C126.784 44.7103 126.98 45.083 127.291 45.344C127.601 45.605 128.002 45.7332 128.407 45.7008C128.603 45.6959 128.797 45.6516 128.977 45.5706C129.157 45.4896 129.318 45.3735 129.452 45.2292C129.586 45.0848 129.69 44.9151 129.758 44.73C129.825 44.5449 129.855 44.3482 129.845 44.1514C129.807 43.747 129.612 43.3737 129.302 43.1119C128.991 42.85 128.59 42.7206 128.185 42.7514C127.988 42.757 127.794 42.802 127.614 42.8836C127.435 42.9652 127.273 43.0818 127.139 43.2266C127.005 43.3714 126.901 43.5415 126.834 43.7269C126.767 43.9123 126.737 44.1093 126.746 44.3063Z" fill="#263238"/>
<path d="M124.986 39.9679C125.196 40.1506 126.276 39.1655 127.925 38.994C129.574 38.8225 130.88 39.5474 131.035 39.3039C131.112 39.2043 130.885 38.8612 130.315 38.5347C129.547 38.1144 128.667 37.9423 127.797 38.0422C126.937 38.127 126.126 38.4859 125.484 39.0659C125.019 39.5086 124.887 39.8905 124.986 39.9679Z" fill="#263238"/>
<path d="M120.394 53.2985C120.394 53.2045 119.348 53.1325 117.66 53.0938C117.234 53.0938 116.825 53.055 116.725 52.7728C116.641 52.3415 116.694 51.8949 116.874 51.4945L117.782 48.1743C119.033 43.4153 119.89 39.5196 119.702 39.4698C119.514 39.42 118.335 43.2382 117.085 48.0028L116.233 51.3507C116.024 51.8818 116.008 52.4692 116.188 53.0108C116.264 53.1549 116.371 53.2798 116.503 53.3757C116.634 53.4717 116.786 53.5361 116.946 53.5641C117.187 53.5937 117.431 53.5937 117.671 53.5641C119.359 53.4922 120.399 53.3926 120.394 53.2985Z" fill="#263238"/>
<path d="M125.379 53.9294C125.108 53.9294 125.296 55.7334 123.896 57.1721C122.496 58.6109 120.576 58.6109 120.576 58.8654C120.576 58.9761 121.035 59.1698 121.849 59.1034C122.897 59.005 123.876 58.5407 124.616 57.7919C125.322 57.0674 125.718 56.0973 125.723 55.0859C125.75 54.3278 125.501 53.9072 125.379 53.9294Z" fill="#263238"/>
<path d="M124.372 33.25C124.582 33.6816 126.209 33.2943 128.174 33.3275C130.138 33.3607 131.765 33.7204 131.975 33.2887C132.07 33.084 131.754 32.6911 131.073 32.3203C130.171 31.8826 129.18 31.6551 128.177 31.6551C127.173 31.6551 126.183 31.8826 125.28 32.3203C124.582 32.6524 124.278 33.0453 124.372 33.25Z" fill="#263238"/>
<path d="M108.828 35.4413C109.155 35.7843 110.256 35.2752 111.623 35.1092C112.989 34.9432 114.179 35.1092 114.389 34.6776C114.489 34.4729 114.268 34.1242 113.725 33.8143C112.999 33.46 112.184 33.3292 111.383 33.4386C110.582 33.5479 109.831 33.8925 109.227 34.4286C108.795 34.8657 108.679 35.2697 108.828 35.4413Z" fill="#263238"/>
<path d="M143.204 44.2178C143.381 44.1182 150.364 41.2517 150.907 48.6448C151.449 56.0378 143.951 55.0307 143.901 54.8204C143.851 54.6101 143.204 44.2178 143.204 44.2178Z" fill="#FFBF9D"/>
<path d="M145.948 51.8598C145.981 51.8598 146.081 51.9372 146.308 52.0203C146.623 52.1294 146.968 52.1115 147.271 51.9704C148.029 51.6274 148.593 50.3435 148.532 49.0099C148.507 48.3756 148.338 47.7551 148.04 47.1948C147.953 46.9698 147.814 46.7691 147.632 46.61C147.451 46.451 147.234 46.3383 147 46.2818C146.85 46.2521 146.694 46.2764 146.561 46.3503C146.427 46.4243 146.324 46.5431 146.269 46.6857C146.181 46.9016 146.241 47.0454 146.203 47.062C146.164 47.0786 146.037 46.9458 146.07 46.6415C146.099 46.4544 146.191 46.2827 146.33 46.1545C146.522 45.987 146.773 45.9015 147.027 45.9166C147.335 45.9529 147.627 46.0683 147.876 46.2517C148.126 46.435 148.323 46.6799 148.449 46.9624C148.813 47.5778 149.018 48.2737 149.047 48.9878C149.108 50.4763 148.449 51.9262 147.387 52.308C147.193 52.3809 146.986 52.4092 146.78 52.391C146.574 52.3728 146.375 52.3085 146.197 52.2029C145.976 52.0368 145.926 51.8708 145.948 51.8598Z" fill="#FF9A6C"/>
<path d="M109.94 24.2355C108.706 23.6489 112.043 19.5485 114.92 18.0267C119.231 15.7302 125.927 14.0535 130.094 14.9499C135.113 16.0567 139.363 18.2148 142.124 22.5422C144.886 26.8696 146.153 32.0325 146.341 37.1623C146.396 38.7283 146.341 40.3663 145.588 41.7387C144.664 43.4375 142.75 44.5941 142.982 46.8407C143.037 47.2464 143.011 47.659 142.905 48.0543C142.798 48.4497 142.614 48.8197 142.362 49.1428C141.1 50.6701 139.363 49.425 138.516 48.119C136.707 45.3522 136.303 41.8936 135.949 38.5844C135.694 36.2381 135.445 33.8365 135.949 31.5345C136.225 30.2783 136.734 29.0775 136.945 27.8103C137.155 26.5431 137.028 25.132 136.187 24.158C135.99 23.9538 135.776 23.7685 135.545 23.6047C134.456 22.769 133.164 22.2392 131.802 22.07C130.44 21.9007 129.058 22.0981 127.797 22.6418C123.73 24.3794 116.774 27.0356 114.826 25.7407C112.032 23.8814 111.301 22.5754 111.301 22.5754L109.94 24.2355Z" fill="#263238"/>
<path d="M98.0259 141.365C94.305 137.276 90.8101 131.844 88.1245 127.6L89.563 116.503V116.501C89.5632 116.499 89.5634 116.496 89.564 116.492C89.565 116.484 89.5667 116.471 89.5688 116.455C89.5732 116.423 89.5799 116.374 89.5884 116.311C89.6055 116.185 89.6305 116 89.6636 115.762C89.7299 115.287 89.8276 114.603 89.9517 113.77C90.1998 112.104 90.5549 109.844 90.981 107.466C91.4072 105.086 91.9033 102.594 92.4351 100.463C92.9386 98.4442 93.4609 96.8064 93.9614 95.8816L94.061 95.7058C95.1394 93.9105 97.1282 92.5048 98.9663 91.4588C99.8782 90.9399 100.733 90.5204 101.399 90.1873C101.552 90.1106 101.698 90.0374 101.832 89.9685L98.0259 141.365Z" fill="white" stroke="#BDBDBD"/>
<g opacity="0.3">
<path opacity="0.3" d="M147.852 105.581C148.015 107.896 148.454 110.182 149.158 112.393C149.949 114.568 151.338 116.615 153.369 117.739C154.216 118.204 155.173 118.513 155.887 119.177C156.601 119.842 157.033 120.915 157.724 121.695C158.59 122.553 159.657 123.18 160.829 123.516C164.125 124.725 167.623 125.288 171.132 125.176C171.243 123.992 171.249 119.642 171.359 118.453L147.852 105.581Z" fill="black"/>
</g>
<mask id="path-94-inside-1_3_6221" fill="white">
<path d="M166.473 80.7127C166.473 80.7127 174.099 82.9704 176.334 86.2187C178.57 89.467 182.527 102.062 183.34 104.397C184.153 106.732 183.44 112.144 181.918 116.018C180.396 119.891 177.751 123.261 173.186 123.765C168.62 124.269 161.404 121.634 159.777 119.891C158.151 118.148 157.481 114.291 157.481 114.291C159.508 113.936 161.508 113.435 163.463 112.792"/>
</mask>
<path d="M166.473 80.7127C166.473 80.7127 174.099 82.9704 176.334 86.2187C178.57 89.467 182.527 102.062 183.34 104.397C184.153 106.732 183.44 112.144 181.918 116.018C180.396 119.891 177.751 123.261 173.186 123.765C168.62 124.269 161.404 121.634 159.777 119.891C158.151 118.148 157.481 114.291 157.481 114.291C159.508 113.936 161.508 113.435 163.463 112.792" fill="white"/>
<path d="M157.481 114.291L157.308 113.306L156.325 113.479L156.496 114.462L157.481 114.291ZM166.473 80.7127C166.189 81.6715 166.189 81.6715 166.189 81.6715C166.189 81.6715 166.189 81.6714 166.189 81.6714C166.189 81.6715 166.189 81.6715 166.19 81.6716C166.19 81.6717 166.191 81.672 166.193 81.6725C166.195 81.6733 166.2 81.6747 166.207 81.6767C166.219 81.6805 166.239 81.6866 166.266 81.6947C166.319 81.711 166.398 81.7357 166.501 81.7685C166.706 81.8342 167.004 81.9322 167.369 82.0601C168.101 82.3162 169.098 82.6902 170.16 83.1615C171.224 83.6342 172.336 84.1967 173.306 84.8267C174.288 85.4647 175.059 86.1298 175.511 86.7857L177.158 85.6518C176.492 84.6834 175.471 83.8483 174.395 83.1494C173.306 82.4424 172.092 81.8314 170.971 81.3336C169.847 80.8345 168.798 80.441 168.03 80.1723C167.646 80.0378 167.33 79.934 167.11 79.8635C167 79.8283 166.913 79.8013 166.853 79.7829C166.823 79.7737 166.8 79.7667 166.784 79.7618C166.776 79.7594 166.77 79.7575 166.765 79.7562C166.763 79.7555 166.761 79.755 166.76 79.7546C166.759 79.7544 166.759 79.7542 166.758 79.7541C166.758 79.754 166.758 79.754 166.758 79.7539C166.757 79.7539 166.757 79.7538 166.473 80.7127ZM175.511 86.7857C176.004 87.5031 176.637 88.812 177.335 90.4859C178.023 92.1367 178.746 94.07 179.428 95.9858C180.808 99.8596 181.965 103.489 182.396 104.726L184.284 104.068C183.902 102.97 182.673 99.1341 181.312 95.3147C180.625 93.3838 179.888 91.4134 179.181 89.7162C178.483 88.042 177.782 86.5585 177.158 85.6518L175.511 86.7857ZM182.396 104.726C182.722 105.663 182.776 107.405 182.512 109.506C182.254 111.563 181.714 113.803 180.987 115.652L182.849 116.383C183.644 114.359 184.221 111.956 184.497 109.755C184.767 107.598 184.771 105.466 184.284 104.068L182.396 104.726ZM180.987 115.652C179.526 119.372 177.104 122.327 173.076 122.771L173.295 124.759C178.397 124.196 181.266 120.411 182.849 116.383L180.987 115.652ZM173.076 122.771C170.994 123.001 168.202 122.513 165.681 121.717C164.433 121.323 163.285 120.865 162.361 120.407C161.409 119.935 160.788 119.508 160.509 119.209L159.046 120.574C159.581 121.146 160.471 121.702 161.473 122.199C162.502 122.709 163.749 123.205 165.079 123.624C167.713 124.456 170.812 125.033 173.295 124.759L173.076 122.771ZM160.509 119.209C159.858 118.512 159.337 117.299 158.973 116.138C158.798 115.579 158.67 115.07 158.586 114.7C158.544 114.516 158.514 114.367 158.494 114.267C158.484 114.216 158.477 114.178 158.472 114.153C158.47 114.141 158.468 114.132 158.467 114.126C158.467 114.123 158.466 114.121 158.466 114.12C158.466 114.12 158.466 114.12 158.466 114.12C158.466 114.12 158.466 114.12 158.466 114.12C158.466 114.12 158.466 114.12 158.466 114.12C158.466 114.12 158.466 114.12 157.481 114.291C156.496 114.462 156.496 114.462 156.496 114.463C156.496 114.463 156.496 114.463 156.496 114.463C156.496 114.463 156.496 114.464 156.496 114.464C156.496 114.465 156.496 114.466 156.497 114.468C156.497 114.47 156.498 114.474 156.499 114.479C156.5 114.488 156.503 114.501 156.506 114.517C156.512 114.549 156.52 114.595 156.532 114.654C156.555 114.771 156.589 114.938 156.636 115.142C156.728 115.55 156.87 116.114 157.065 116.737C157.442 117.94 158.07 119.527 159.046 120.574L160.509 119.209ZM157.654 115.276C159.728 114.913 161.774 114.4 163.775 113.742L163.15 111.842C161.241 112.47 159.288 112.959 157.308 113.306L157.654 115.276Z" fill="#BDBDBD" mask="url(#path-94-inside-1_3_6221)"/>
<path d="M163.463 112.83L163.369 112.869L163.081 112.974C162.827 113.063 162.445 113.19 161.941 113.339C160.486 113.774 159.008 114.129 157.514 114.402L157.575 114.319C157.761 115.27 158.021 116.204 158.355 117.113C158.537 117.629 158.758 118.13 159.014 118.613C159.276 119.129 159.622 119.598 160.038 120.002C160.506 120.404 161.023 120.746 161.576 121.02C162.16 121.327 162.761 121.602 163.374 121.845C164.691 122.371 166.045 122.8 167.425 123.128C168.914 123.494 170.44 123.689 171.974 123.71C172.373 123.713 172.772 123.695 173.169 123.654C173.57 123.608 173.967 123.538 174.359 123.444C175.163 123.263 175.935 122.963 176.65 122.553C178.138 121.692 179.388 120.473 180.285 119.006C181.234 117.483 181.961 115.832 182.444 114.103C182.837 112.775 183.132 111.419 183.323 110.047C183.529 108.718 183.596 107.372 183.523 106.029C183.479 105.383 183.347 104.747 183.13 104.137C182.919 103.517 182.715 102.903 182.515 102.294L181.326 98.7359C180.54 96.4228 179.765 94.2369 178.991 92.2061C178.31 90.3163 177.491 88.4796 176.539 86.7111C176.099 85.9594 175.512 85.3044 174.813 84.7854C174.203 84.3004 173.555 83.8655 172.876 83.4849C171.784 82.8622 170.655 82.3077 169.495 81.8248C168.543 81.4319 167.79 81.1552 167.281 80.9726L166.7 80.7679C166.631 80.7494 166.564 80.7235 166.501 80.6904C166.571 80.6995 166.639 80.7162 166.706 80.7402L167.298 80.9173C167.818 81.0833 168.582 81.3434 169.544 81.7197C170.715 82.1816 171.855 82.7157 172.959 83.3189C173.651 83.6995 174.311 84.1344 174.934 84.6193C175.654 85.1477 176.26 85.8158 176.716 86.5838C177.69 88.362 178.526 90.2119 179.217 92.1175C180.009 94.1429 180.789 96.3342 181.58 98.6473C181.973 99.8039 182.372 100.994 182.781 102.205C182.986 102.809 183.191 103.423 183.395 104.043C183.623 104.674 183.762 105.333 183.81 106.002C183.889 107.364 183.824 108.731 183.617 110.08C183.421 111.467 183.123 112.837 182.726 114.18C182.232 115.938 181.486 117.616 180.512 119.161C179.59 120.667 178.303 121.917 176.771 122.796C176.033 123.216 175.237 123.524 174.409 123.71C174.006 123.805 173.597 123.878 173.186 123.925C172.776 123.925 172.367 123.997 171.968 123.981C170.414 123.952 168.867 123.748 167.359 123.372C165.966 123.038 164.601 122.6 163.275 122.06C162.657 121.811 162.053 121.528 161.465 121.214C160.896 120.929 160.364 120.574 159.883 120.157C159.454 119.733 159.099 119.241 158.831 118.702C158.574 118.211 158.354 117.703 158.173 117.18C157.848 116.254 157.595 115.305 157.415 114.341V114.269H157.486C159.434 113.931 160.928 113.55 161.941 113.273L163.092 112.946L163.385 112.863C163.43 112.83 163.463 112.825 163.463 112.83Z" fill="#263238"/>
<path d="M177.457 108.752C177.402 108.752 177.225 107.811 176.589 106.406C175.753 104.579 174.586 102.922 173.147 101.519C172.349 100.76 171.447 100.119 170.468 99.6158L169.799 99.317C169.577 99.2174 169.345 99.1731 169.135 99.1012C168.737 98.9759 168.327 98.8906 167.912 98.8467L167.635 98.8079H166.882C166.623 98.804 166.363 98.8263 166.108 98.8743C165.885 98.919 165.659 98.9431 165.433 98.9463C165.642 98.8595 165.861 98.7982 166.086 98.7636C166.343 98.6906 166.609 98.6515 166.877 98.6474H167.375H167.646L167.934 98.6806C168.363 98.7105 168.787 98.7847 169.201 98.902C169.433 98.9602 169.662 99.0304 169.887 99.1123L170.585 99.4111C171.6 99.9125 172.533 100.566 173.351 101.348C174.822 102.769 175.987 104.475 176.777 106.361C176.918 106.682 177.04 107.011 177.142 107.346C177.227 107.598 177.298 107.855 177.352 108.116C177.407 108.324 177.443 108.537 177.457 108.752Z" fill="#263238"/>
<path d="M181.619 101.907C181.304 101.101 180.919 100.325 180.468 99.5881C179.321 97.8377 177.605 96.5376 175.609 95.9082C173.268 95.1943 170.994 95.4157 169.406 95.5651L167.508 95.792C167.278 95.8335 167.044 95.8539 166.811 95.8528C167.029 95.7674 167.258 95.7098 167.491 95.6813C167.934 95.5928 168.598 95.4766 169.384 95.3659C171.481 94.9993 173.633 95.09 175.692 95.6315C176.82 95.9704 177.867 96.5352 178.769 97.2916C179.508 97.9194 180.139 98.6633 180.639 99.494C180.981 100.039 181.255 100.625 181.453 101.237C181.534 101.453 181.589 101.678 181.619 101.907Z" fill="#263238"/>
<path d="M175.869 93.7224C172.886 93.019 169.767 93.1414 166.849 94.0765C167.231 93.8268 167.652 93.64 168.094 93.5231C169.141 93.2012 170.225 93.0152 171.32 92.9698C172.415 92.9309 173.51 93.0313 174.579 93.2686C175.029 93.3546 175.464 93.5076 175.869 93.7224Z" fill="#263238"/>
<path d="M163.529 82.6162C163.573 82.6162 163.462 83.3965 163.374 84.6471C163.142 87.8504 163.418 91.0703 164.193 94.1872L163.994 94.2536C163.767 93.6173 163.59 93.0971 163.474 92.7319C163.401 92.5538 163.349 92.3682 163.319 92.1785C163.431 92.3503 163.521 92.5364 163.584 92.7319C163.734 93.0805 163.938 93.5896 164.193 94.2204L163.994 94.2813C163.556 92.7502 163.265 91.1807 163.125 89.5942C162.98 87.9532 162.995 86.3019 163.169 84.6637C163.241 84.0384 163.324 83.557 163.391 83.1862C163.409 82.9906 163.456 82.7986 163.529 82.6162Z" fill="#263238"/>
<path d="M152.744 68.4222C152.744 68.4222 148.787 68.4222 148.289 73.1757C147.907 76.8279 148.289 80.3695 148.289 81.9743C148.289 83.579 147.586 89.2622 147.586 89.2622C147.586 89.2622 144.886 91.6583 144.93 94.5358C144.974 97.4133 147.033 98.3098 147.033 98.3098C146.688 99.2015 146.612 100.175 146.814 101.109C147.017 102.044 147.489 102.898 148.173 103.567C148.173 103.567 147.028 106.217 147.968 107.994C148.51 108.877 149.357 109.533 150.348 109.837C150.185 110.186 150.1 110.567 150.097 110.952C150.094 111.338 150.174 111.719 150.332 112.071C150.489 112.423 150.72 112.737 151.009 112.992C151.299 113.247 151.639 113.437 152.008 113.55C153.337 113.961 154.73 114.132 156.119 114.053L159.074 113.998L161.675 115.437C161.675 115.437 166.135 113.494 166.246 110.866L166.362 108.237C166.362 108.237 165.084 103.921 164.979 102.538C164.874 101.154 166.008 97.8505 165.322 96.3675C164.636 94.8844 162.24 94.0101 162.467 91.9405C162.693 89.8709 162.24 88.7199 161.21 87.5744C160.181 86.4289 155.638 84.149 155.638 84.149C155.638 84.149 154.47 80.8288 154.47 78.5544C154.47 76.2801 156.745 69.291 152.744 68.4222Z" fill="#FFBF9D"/>
<path d="M155.411 85.0123C155.071 85.2906 154.699 85.5283 154.304 85.7206C153.607 86.1301 152.644 86.6724 151.537 87.2589C150.431 87.8455 149.468 88.3657 148.77 88.7254C148.394 88.9532 147.993 89.1388 147.575 89.2787C147.914 88.9972 148.286 88.7576 148.682 88.5649C149.379 88.1554 150.342 87.6131 151.449 87.0265C152.556 86.44 153.518 85.9198 154.216 85.5601C154.592 85.3322 154.993 85.1484 155.411 85.0123Z" fill="#FF9A6C"/>
<path d="M158.012 93.9603C158.012 93.9603 157.901 94.0876 157.663 94.2702C157.333 94.5295 156.989 94.7715 156.634 94.9951C155.465 95.7439 154.223 96.3707 152.926 96.8655C151.629 97.3685 150.285 97.7393 148.914 97.9722C148.361 98.0552 147.957 98.1051 147.664 98.1217C147.51 98.1504 147.352 98.1504 147.199 98.1217C147.199 98.0774 147.841 97.9888 148.859 97.773C150.202 97.4909 151.521 97.1061 152.804 96.622C154.085 96.1265 155.325 95.5307 156.512 94.8402C156.997 94.5215 157.497 94.2279 158.012 93.9603Z" fill="#FF9A6C"/>
<path d="M161.409 91.1104C161.481 91.1381 161.332 91.6638 160.856 92.0677C160.38 92.4717 159.871 92.5934 159.854 92.5215C159.838 92.4495 160.247 92.2393 160.662 91.8519C161.077 91.4645 161.332 91.0772 161.409 91.1104Z" fill="#FF9A6C"/>
<path d="M159.777 101.791C159.245 102.049 158.689 102.253 158.117 102.399C156.755 102.804 155.369 103.12 153.966 103.345C152.564 103.574 151.148 103.707 149.728 103.744C149.139 103.789 148.547 103.771 147.962 103.689C148.544 103.606 149.13 103.558 149.717 103.545C150.823 103.467 152.29 103.323 153.922 103.063C155.555 102.803 157.01 102.466 158.061 102.2C158.625 102.03 159.198 101.893 159.777 101.791Z" fill="#FF9A6C"/>
<path d="M163.396 101.154C163.48 100.866 163.582 100.583 163.701 100.307C163.92 99.6315 163.994 98.9167 163.917 98.2102C163.828 97.5042 163.587 96.8261 163.208 96.2236C163.029 95.983 162.865 95.7317 162.716 95.471C162.716 95.4433 163.031 95.6481 163.38 96.1074C163.827 96.7144 164.11 97.4273 164.199 98.1761C164.288 98.925 164.181 99.6842 163.889 100.379C163.662 100.883 163.424 101.154 163.396 101.154Z" fill="#FF9A6C"/>
<path d="M159.998 109.803C159.545 109.971 159.073 110.082 158.593 110.135C157.443 110.317 156.281 110.407 155.118 110.407C153.951 110.405 152.787 110.306 151.637 110.113C151.156 110.059 150.684 109.946 150.231 109.776C150.712 109.784 151.191 109.83 151.665 109.914C152.811 110.044 153.964 110.112 155.118 110.119C156.269 110.116 157.42 110.054 158.565 109.931C159.039 109.85 159.518 109.808 159.998 109.803Z" fill="#FF9A6C"/>
<path d="M152.96 78.6097C152.96 78.6429 152.777 78.7924 152.406 78.9252C151.918 79.0883 151.4 79.1411 150.889 79.0798C150.378 79.0186 149.887 78.8448 149.451 78.571C149.119 78.3552 148.964 78.167 148.986 78.1394C149.598 78.4467 150.25 78.6665 150.923 78.7924C151.607 78.8287 152.293 78.7673 152.96 78.6097Z" fill="#FF9A6C"/>
<path d="M164.215 101.47C164.265 101.606 164.287 101.751 164.281 101.896C164.281 102.289 164.235 102.681 164.143 103.063C164.038 103.545 163.855 104.104 163.678 104.723C163.464 105.372 163.394 106.059 163.473 106.738C163.567 107.44 164.093 108.005 164.176 108.719C164.233 109.322 164.078 109.926 163.739 110.429C163.533 110.762 163.294 111.073 163.025 111.358C162.837 111.563 162.721 111.663 162.704 111.652C162.688 111.64 163.086 111.165 163.562 110.329C163.848 109.858 163.971 109.305 163.91 108.757C163.844 108.154 163.313 107.59 163.186 106.787C163.101 106.067 163.183 105.336 163.423 104.651C163.617 104.026 163.816 103.478 163.944 102.991C164.071 102.491 164.162 101.983 164.215 101.47Z" fill="#FF9A6C"/>
<path d="M165.704 104.945C165.794 105.107 165.857 105.283 165.892 105.465C165.991 105.802 166.124 106.3 166.246 106.92C166.396 107.649 166.485 108.39 166.511 109.134C166.559 110.064 166.388 110.993 166.013 111.845C165.578 112.662 165.001 113.394 164.309 114.009C163.759 114.51 163.172 114.971 162.555 115.387C162.029 115.747 161.586 116.012 161.277 116.184C161.124 116.287 160.958 116.369 160.784 116.427C160.756 116.388 161.42 115.968 162.444 115.221C163.038 114.789 163.604 114.319 164.137 113.815C164.795 113.214 165.345 112.505 165.764 111.718C166.119 110.904 166.287 110.021 166.257 109.134C166.244 108.401 166.177 107.671 166.058 106.948C165.842 105.714 165.659 104.956 165.704 104.945Z" fill="#263238"/>
<path d="M123.952 86.523C123.721 86.3875 123.506 86.228 123.31 86.0471L121.65 84.6581L120.499 83.6897C120.302 83.5057 120.082 83.3476 119.846 83.2194C119.731 83.1606 119.604 83.13 119.475 83.13C119.346 83.13 119.219 83.1606 119.104 83.2194C118.628 83.4684 118.307 84.0771 117.903 84.5862C117.499 85.0953 117.101 85.6929 116.68 86.2463C116.016 87.1428 115.369 88.0005 114.777 88.7973L114.417 89.2732L114.533 88.6867C114.85 87.041 115.312 85.4263 115.911 83.8613C116.132 83.3079 116.332 82.832 116.464 82.5276C116.527 82.3642 116.61 82.2097 116.713 82.0683C116.676 82.2372 116.622 82.4021 116.553 82.5608C116.437 82.8763 116.265 83.3356 116.066 83.9221C115.525 85.4952 115.101 87.1062 114.799 88.742L114.55 88.6313L116.448 86.0748L117.671 84.4146L118.257 83.6344C118.444 83.3572 118.694 83.1294 118.988 82.9703C119.142 82.9029 119.309 82.8714 119.477 82.8781C119.644 82.8848 119.808 82.9296 119.956 83.0091C120.208 83.1507 120.44 83.3236 120.648 83.5237L121.755 84.5198L123.371 85.9752C123.578 86.1422 123.773 86.3253 123.952 86.523Z" fill="#263238"/>
<path d="M147.315 81.847C147.251 81.9198 147.179 81.9848 147.1 82.0407L146.447 82.5498L144.006 84.3815L135.866 90.3745L135.744 90.463L135.661 90.3358C135.595 90.2361 135.529 90.1255 135.457 90.0203L131.373 83.568L131.522 83.6178C129.948 84.2429 128.431 85.0001 126.984 85.8811C126.464 86.1965 126.06 86.4345 125.784 86.6392C125.649 86.7406 125.505 86.8278 125.352 86.8993C125.469 86.7772 125.599 86.6678 125.739 86.5728C126.005 86.3791 126.398 86.0969 126.913 85.7594C128.34 84.8301 129.852 84.0372 131.428 83.3909L131.522 83.3522L131.577 83.4352C132.778 85.3001 134.189 87.508 135.7 89.8654C135.772 89.9705 135.838 90.0812 135.905 90.1808L135.695 90.1421L143.89 84.221L146.38 82.4557L147.066 81.9909C147.227 81.8858 147.31 81.836 147.315 81.847Z" fill="#263238"/>
<path d="M97.6497 103.855C97.6749 103.982 97.686 104.112 97.6829 104.242C97.6829 104.53 97.6829 104.9 97.7105 105.349C97.7105 106.35 97.7603 107.75 97.788 109.466C97.8544 112.941 97.9927 117.766 98.1754 123.051C98.358 128.336 98.4631 133.161 98.4742 136.642C98.4742 138.385 98.4742 139.791 98.4742 140.764C98.4742 141.224 98.4742 141.6 98.4465 141.871C98.4525 142.003 98.4432 142.135 98.4188 142.264C98.4108 142.133 98.4108 142.002 98.4188 141.871C98.4188 141.589 98.4188 141.213 98.3856 140.764C98.3856 139.757 98.3414 138.357 98.3082 136.647C98.2473 133.167 98.1034 128.347 97.9263 123.057C97.7493 117.766 97.6386 112.946 97.6275 109.466C97.6275 107.728 97.6275 106.317 97.6275 105.349C97.6275 104.884 97.6275 104.513 97.6275 104.242C97.6266 104.112 97.634 103.983 97.6497 103.855Z" fill="#263238"/>
<path d="M124.134 153.835C124.116 153.785 124.105 153.733 124.101 153.68C124.101 153.559 124.101 153.404 124.051 153.21C124.007 152.773 123.946 152.17 123.874 151.4C123.719 149.829 123.542 147.527 123.365 144.732C123.188 141.938 123.038 138.551 122.944 134.821C122.85 131.092 122.839 126.98 122.944 122.647C123.05 118.314 123.243 114.236 123.498 110.512C123.752 106.788 124.051 103.434 124.35 100.629C124.649 97.8229 124.903 95.5486 125.147 93.9881C125.257 93.2189 125.34 92.6212 125.401 92.1896C125.435 91.9959 125.457 91.841 125.479 91.7192C125.482 91.6661 125.493 91.6138 125.512 91.5643C125.521 91.6174 125.521 91.6716 125.512 91.7248C125.512 91.8465 125.484 92.0014 125.468 92.1951C125.418 92.6268 125.352 93.2299 125.263 93.9991C125.075 95.5707 124.831 97.8395 124.56 100.64C124.289 103.44 124.007 106.799 123.769 110.523C123.531 114.247 123.348 118.347 123.249 122.653C123.149 126.958 123.177 131.058 123.249 134.788C123.321 138.518 123.459 141.871 123.614 144.688C123.769 147.505 123.907 149.79 124.029 151.362C124.079 152.131 124.123 152.74 124.151 153.177C124.151 153.37 124.151 153.525 124.178 153.647C124.169 153.711 124.154 153.774 124.134 153.835Z" fill="#263238"/>
<path d="M107.644 63.2593L107.057 63.6467L105.331 64.7534C104.567 65.2459 103.671 65.9487 102.619 66.7234C102.066 67.1218 101.557 67.6033 100.959 68.0902L100.057 68.8483C99.7472 69.114 99.4539 69.4017 99.1384 69.7061C96.0779 72.5611 93.3894 75.7906 91.1367 79.3181L90.1517 80.9008C89.8031 81.4265 89.5374 82.0075 89.2165 82.5609C88.8955 83.1143 88.5801 83.7119 88.2924 84.3206C88.0046 84.9293 87.739 85.5546 87.4402 86.1855C87.3018 86.5009 87.1469 86.8108 87.0141 87.1373C86.8813 87.4638 86.7651 87.7958 86.6378 88.1334C86.3888 88.7974 86.1231 89.467 85.8797 90.1587C85.4702 91.5587 84.95 92.9754 84.6401 94.4861C83.0625 101.022 82.7992 107.807 83.8654 114.446C85.2528 122.995 88.8327 131.039 94.2558 137.792C99.679 144.545 106.76 149.777 114.808 152.977C122.856 156.178 131.597 157.237 140.176 156.052C148.756 154.866 156.882 151.477 163.761 146.215C165.498 144.88 167.15 143.439 168.708 141.899L169.815 140.726C170.191 140.338 170.557 139.946 170.922 139.531L171.973 138.319C172.305 137.898 172.632 137.478 172.964 137.062C177.969 130.615 181.309 123.034 182.687 114.988C183.01 113.121 183.23 111.236 183.345 109.344C183.4 108.409 183.4 107.485 183.434 106.577C183.467 105.67 183.367 104.746 183.334 103.844C183.334 103.395 183.295 102.942 183.279 102.493C183.262 102.045 183.179 101.608 183.135 101.165C183.024 100.285 182.919 99.4111 182.814 98.5478C182.709 97.6845 182.482 96.8434 182.316 96.0023C182.177 95.1682 181.992 94.3424 181.762 93.5287L181.076 91.1326C180.969 90.7396 180.837 90.3534 180.683 89.9761C180.539 89.5943 180.396 89.2124 180.257 88.8361C179.964 88.0891 179.704 87.3254 179.388 86.6227C179.073 85.9199 178.73 85.206 178.403 84.5143C175.997 79.5113 172.768 74.9473 168.852 71.012C165.885 68.0639 162.574 65.4833 158.991 63.3257L156.877 62.1138C156.558 61.9268 156.229 61.7568 155.892 61.6047L154.963 61.162L153.302 60.3762C152.804 60.1217 152.312 59.9778 151.897 59.8229L149.971 59.0813L149.318 58.8157L149.982 59.0537L151.914 59.7731C152.334 59.9391 152.827 60.0829 153.33 60.3264L154.99 61.1011L155.925 61.5438C156.264 61.6921 156.595 61.8583 156.916 62.0419L159.035 63.2482C162.642 65.3921 165.974 67.9677 168.957 70.918C172.897 74.8503 176.148 79.4164 178.575 84.4258C178.901 85.1285 179.233 85.8313 179.571 86.5507C179.909 87.2701 180.124 88.0282 180.445 88.7642L180.877 89.9041C181.031 90.2833 181.162 90.6714 181.27 91.0662C181.502 91.8631 181.735 92.6599 181.967 93.4734C182.207 94.2901 182.401 95.1196 182.548 95.958C182.714 96.7992 182.913 97.6181 183.057 98.5091C183.201 99.4 183.268 100.258 183.378 101.143C183.428 101.586 183.5 102.029 183.528 102.477C183.555 102.925 183.566 103.379 183.583 103.833C183.616 104.74 183.666 105.653 183.688 106.599C183.71 107.546 183.66 108.453 183.6 109.366C183.034 119.496 179.4 129.214 173.18 137.228L172.172 138.49L171.11 139.713C170.767 140.128 170.396 140.527 170.003 140.914L168.896 142.098C167.329 143.647 165.665 145.096 163.916 146.437C157.004 151.721 148.84 155.124 140.221 156.313C131.602 157.503 122.821 156.44 114.736 153.226C106.65 150.013 99.5348 144.759 94.084 137.977C88.6331 131.195 85.0324 123.117 83.633 114.529C83.0715 111.068 82.8859 107.555 83.0796 104.054C83.2191 100.824 83.6845 97.6167 84.4686 94.4805C84.7784 92.9643 85.3042 91.5477 85.7136 90.1366C85.9627 89.4504 86.2338 88.7753 86.4884 88.1057C86.6156 87.7737 86.7429 87.4416 86.8647 87.1096C86.9864 86.7776 87.1579 86.4732 87.2963 86.1523C87.5896 85.5214 87.8497 84.9017 88.154 84.2874C88.4584 83.6732 88.7849 83.1032 89.0892 82.5222C89.3936 81.9411 89.6813 81.3656 90.0299 80.8344L91.026 79.2517C93.2906 75.7188 96.0004 72.492 99.0886 69.6507C99.4041 69.3575 99.6973 69.0586 100.007 68.793L100.915 68.0349C101.512 67.5535 102.022 67.0776 102.575 66.6791C103.654 65.9044 104.539 65.2127 105.309 64.7257L107.052 63.619C107.428 63.3755 107.644 63.2593 107.644 63.2593Z" fill="#263238"/>
</svg>
