<svg width="48" height="48" viewBox="0 0 48 48" fill="none" xmlns="http://www.w3.org/2000/svg">
<circle cx="24" cy="24" r="24" fill="#790B0A"/>
<g clip-path="url(#clip0_5_156)">
<rect width="26.88" height="26.88" transform="translate(10.5601 10.5596)" fill="#790B0A"/>
<path d="M32.1992 36.0212C31.9893 36.0212 31.7807 35.9591 31.6018 35.8378L24.8431 31.2532L21.2181 33.8616C20.9338 34.066 20.5674 34.1175 20.2373 33.9995C19.9076 33.8812 19.6572 33.6081 19.5678 33.2694L17.7476 26.3716L11.244 23.8848C10.8346 23.7282 10.5631 23.3365 10.5601 22.8981C10.5571 22.4597 10.8232 22.0643 11.2307 21.9022L35.9598 12.0623C36.0721 12.0146 36.1908 11.9871 36.3105 11.9797C36.3534 11.9772 36.3964 11.9772 36.4391 11.9796C36.6871 11.9943 36.9306 12.0953 37.1207 12.2818C37.1405 12.301 37.1592 12.3208 37.1769 12.3413C37.3344 12.5212 37.4209 12.7406 37.4372 12.964C37.4412 13.0202 37.4409 13.0771 37.436 13.1339C37.4326 13.1745 37.4267 13.215 37.4185 13.2551L33.2444 35.1564C33.1773 35.5082 32.9378 35.8028 32.607 35.9399C32.4757 35.9944 32.3371 36.0212 32.1992 36.0212ZM25.4366 29.0844L31.457 33.168L34.7049 16.1264L22.9743 27.4142L25.4082 29.0652C25.418 29.0713 25.4273 29.0778 25.4366 29.0844ZM20.4248 28.1763L21.2309 31.2307L22.9676 29.981L20.6935 28.4383C20.5878 28.3668 20.4973 28.2777 20.4248 28.1763ZM14.5517 22.871L19.0174 24.5784C19.3373 24.7007 19.5787 24.9696 19.6661 25.3008L20.2324 27.4471C20.2584 27.1995 20.3706 26.9666 20.5529 26.7911L31.7305 16.0356L14.5517 22.871Z" fill="white"/>
</g>
<defs>
<clipPath id="clip0_5_156">
<rect width="26.88" height="26.88" fill="white" transform="translate(10.5601 10.5596)"/>
</clipPath>
</defs>
</svg>
