<svg width="48" height="48" viewBox="0 0 48 48" fill="none" xmlns="http://www.w3.org/2000/svg">
<circle cx="24" cy="24" r="24" fill="#790B0A"/>
<g clip-path="url(#clip0_5_152)">
<rect width="31.68" height="31.68" transform="translate(8.64014 8.63965)" fill="#790B0A"/>
<path d="M24.479 35.9878C24.4764 35.9878 24.4735 35.9878 24.4706 35.9878C23.5146 35.9813 15.0638 35.9042 12.6696 35.2566C10.9963 34.8068 9.6754 33.4874 9.22439 31.8139C8.5979 29.4619 8.63778 24.9337 8.64213 24.5721C8.63802 24.2122 8.59766 19.6465 9.22245 17.2752C9.22318 17.273 9.22366 17.2706 9.22439 17.2684C9.67032 15.614 11.0209 14.2537 12.6655 13.8027C12.6696 13.8015 12.6739 13.8005 12.678 13.7993C15.0452 13.1771 23.5127 13.101 24.4706 13.0945H24.4877C25.4461 13.101 33.9193 13.1781 36.2916 13.8266C37.9605 14.2752 39.2805 15.5929 39.7327 17.2643C40.3826 19.6373 40.3224 24.2129 40.3159 24.5991C40.3205 24.9796 40.3584 29.4672 39.7356 31.831C39.7351 31.8335 39.7344 31.8356 39.7339 31.8378C39.2826 33.5113 37.962 34.8308 36.2868 35.2811C36.2846 35.2818 36.2822 35.2823 36.28 35.283C33.913 35.9049 25.4453 35.981 24.4877 35.9878C24.4848 35.9878 24.4819 35.9878 24.479 35.9878ZM11.6148 17.9099C11.0647 20.003 11.1167 24.5104 11.1171 24.5559V24.5885C11.1007 25.8386 11.1585 29.4588 11.615 31.1734C11.8364 31.9944 12.4878 32.6448 13.3139 32.867C15.0805 33.3448 21.9634 33.4951 24.479 33.5128C27.0012 33.4951 33.8942 33.3489 35.6477 32.8902C36.4712 32.6673 37.1204 32.0191 37.3432 31.1971C37.8003 29.4573 37.8576 25.8548 37.8409 24.6127C37.8409 24.5996 37.8409 24.5866 37.8411 24.5735C37.8639 23.3085 37.8191 19.646 37.3454 17.9176C37.3449 17.9159 37.3444 17.9142 37.3442 17.9125C37.1218 17.0878 36.4702 16.4374 35.6441 16.2153C33.8947 15.737 27.0007 15.5871 24.479 15.5695C21.9586 15.5871 15.0723 15.7331 13.3135 16.1914C12.503 16.4162 11.8369 17.0898 11.6148 17.9099ZM38.5389 31.5159H38.5397H38.5389ZM21.3246 29.5528V19.5293L29.9871 24.5411L21.3246 29.5528Z" fill="white"/>
</g>
<defs>
<clipPath id="clip0_5_152">
<rect width="31.68" height="31.68" fill="white" transform="translate(8.64014 8.63965)"/>
</clipPath>
</defs>
</svg>
